<?xml version="1.0" encoding="UTF-8" standalone="no"?>
<!-- Generator: Adobe Illustrator 16.0.0, SVG Export Plug-In . SVG Version: 6.00 Build 0)  -->

<svg
   xmlns:dc="http://purl.org/dc/elements/1.1/"
   xmlns:cc="http://creativecommons.org/ns#"
   xmlns:rdf="http://www.w3.org/1999/02/22-rdf-syntax-ns#"
   xmlns:svg="http://www.w3.org/2000/svg"
   xmlns="http://www.w3.org/2000/svg"
   xmlns:sodipodi="http://sodipodi.sourceforge.net/DTD/sodipodi-0.dtd"
   xmlns:inkscape="http://www.inkscape.org/namespaces/inkscape"
   version="1.1"
   id="Layer_1"
   x="0px"
   y="0px"
   width="220.875px"
   height="29.562px"
   viewBox="0 0 220.875 29.562"
   enable-background="new 0 0 220.875 29.562"
   xml:space="preserve"
   inkscape:version="0.91 r13725"
   sodipodi:docname="logo.svg"><metadata
     id="metadata35"><rdf:RDF><cc:Work
         rdf:about=""><dc:format>image/svg+xml</dc:format><dc:type
           rdf:resource="http://purl.org/dc/dcmitype/StillImage" /><dc:title /></cc:Work></rdf:RDF></metadata><defs
     id="defs33" /><sodipodi:namedview
     pagecolor="#ffffff"
     bordercolor="#666666"
     borderopacity="1"
     objecttolerance="10"
     gridtolerance="10"
     guidetolerance="10"
     inkscape:pageopacity="0"
     inkscape:pageshadow="2"
     inkscape:window-width="1855"
     inkscape:window-height="1056"
     id="namedview31"
     showgrid="false"
     inkscape:zoom="1.344652"
     inkscape:cx="110.4375"
     inkscape:cy="-14.966476"
     inkscape:window-x="1425"
     inkscape:window-y="24"
     inkscape:window-maximized="1"
     inkscape:current-layer="Layer_1" /><path
     d="m 72.068323,-94.239657 c 2.152,0 3.15,1.633 3.36,3.952 0.049,0.556 -0.002,1.364 -0.074,2.301 -0.242,3.114 -0.52,6.939 1.553,6.939 1.753,0 2.654,-3.363 3.174,-7.198 0.502,-3.795 -0.03,-5.685 0.231,-7.369 0.498,-3.193 3.286,-6.056003 2.424,-10.128003 -0.477,-2.259 -1.72,-3.321 -2.953,-3.768 -2.838,-1.033 -4.67,0.957 -7.718,0.957 -3.048,0 -4.88,-1.99 -7.719,-0.957 -1.229,0.447 -2.473,1.509 -2.95,3.768 -0.86,4.071 1.926,6.935003 2.426,10.128003 0.261,1.685 -0.27,3.574 0.232,7.369 0.52,3.834 1.42,7.198 3.174,7.198 2.071,0 1.795,-3.825 1.553,-6.939 -0.071,-0.937 -0.124,-1.746 -0.074,-2.301 0.209,-2.32 1.22,-3.952 3.361,-3.952 l 0,0 z"
     id="path3"
     inkscape:connector-curvature="0"
     style="fill:#3cadb2" /><g
     id="g5"
     transform="translate(63.957071,-113.0404)"><path
       d="m 27.138,26.492 0,-24.009 8.207,0 c 7.451,0 12.311,5.219 12.311,12.022 0,6.839 -4.859,11.986 -12.311,11.986 l -8.207,0 z M 44.56,14.505 c 0,-5.184 -3.275,-9.359 -9.215,-9.359 l -5.219,0 0,18.682 5.219,0 c 5.831,0 9.215,-4.176 9.215,-9.323 z"
       id="path7"
       inkscape:connector-curvature="0"
       style="fill:#3cadb2" /><path
       d="m 51.222,17.781 c 0,-5.04 3.6,-9.107 8.567,-9.107 5.255,0 8.351,4.104 8.351,9.323 l 0,0.684 -14.075,0 c 0.216,3.275 2.52,6.011 6.263,6.011 1.979,0 3.995,-0.792 5.363,-2.196 l 1.296,1.764 c -1.728,1.728 -4.068,2.664 -6.911,2.664 -5.147,0 -8.854,-3.708 -8.854,-9.143 z m 8.53,-6.875 c -3.708,0 -5.543,3.131 -5.687,5.795 l 11.41,0 C 65.44,14.109 63.712,10.906 59.752,10.906 Z"
       id="path9"
       inkscape:connector-curvature="0"
       style="fill:#3cadb2" /><path
       d="m 84.231,26.492 0,-11.375 c 0,-3.06 -1.548,-4.032 -3.887,-4.032 -2.124,0 -4.14,1.296 -5.147,2.7 l 0,12.707 -2.7,0 0,-17.386 2.7,0 0,2.52 c 1.224,-1.44 3.6,-2.952 6.191,-2.952 3.636,0 5.543,1.836 5.543,5.615 l 0,12.203 -2.7,0 z"
       id="path11"
       inkscape:connector-curvature="0"
       style="fill:#3cadb2" /><path
       d="m 92.873,22.856 0,-11.375 -2.88,0 0,-2.375 2.88,0 0,-4.752 2.7,0 0,4.751 3.527,0 0,2.375 -3.527,0 0,10.8 c 0,1.296 0.576,2.231 1.764,2.231 0.756,0 1.476,-0.324 1.836,-0.72 l 0.792,2.016 c -0.685,0.648 -1.656,1.116 -3.24,1.116 -2.556,0.001 -3.852,-1.475 -3.852,-4.067 z"
       id="path13"
       inkscape:connector-curvature="0"
       style="fill:#3cadb2" /><path
       d="m 102.449,4.822 c 0,-1.008 0.828,-1.835 1.8,-1.835 1.008,0 1.836,0.828 1.836,1.835 0,1.007 -0.828,1.8 -1.836,1.8 -0.972,0 -1.8,-0.792 -1.8,-1.8 z m 0.468,21.67 0,-17.386 2.7,0 0,17.386 -2.7,0 z"
       id="path15"
       inkscape:connector-curvature="0"
       style="fill:#3cadb2" /><path
       d="m 109.505,24.188 1.404,-1.944 c 1.15,1.332 3.348,2.484 5.723,2.484 2.664,0 4.104,-1.26 4.104,-2.988 0,-4.211 -10.762,-1.62 -10.762,-8.063 0,-2.7 2.338,-5.003 6.479,-5.003 2.951,0 5.039,1.116 6.443,2.52 l -1.26,1.872 c -1.045,-1.26 -2.953,-2.196 -5.184,-2.196 -2.377,0 -3.852,1.188 -3.852,2.736 0,3.815 10.762,1.296 10.762,8.063 0,2.916 -2.34,5.255 -6.838,5.255 -2.843,0 -5.255,-0.864 -7.019,-2.736 z"
       id="path17"
       inkscape:connector-curvature="0"
       style="fill:#3cadb2" /><path
       d="m 128.296,22.856 0,-11.375 -2.879,0 0,-2.375 2.879,0 0,-4.752 2.699,0 0,4.751 3.527,0 0,2.375 -3.527,0 0,10.8 c 0,1.296 0.576,2.231 1.764,2.231 0.756,0 1.477,-0.324 1.836,-0.72 l 0.793,2.016 c -0.686,0.648 -1.656,1.116 -3.24,1.116 -2.557,0.001 -3.852,-1.475 -3.852,-4.067 z"
       id="path19"
       inkscape:connector-curvature="0"
       style="fill:#3cadb2" /><path
       d="m 137.009,23.108 1.764,-2.268 c 1.584,1.764 4.174,3.419 7.559,3.419 4.283,0 5.65,-2.304 5.65,-4.139 0,-6.191 -14.217,-2.772 -14.217,-11.339 0,-3.959 3.527,-6.659 8.242,-6.659 3.672,0 6.516,1.224 8.531,3.348 l -1.801,2.196 c -1.799,-1.979 -4.318,-2.879 -6.947,-2.879 -2.879,0 -4.93,1.547 -4.93,3.815 0,5.399 14.217,2.304 14.217,11.267 0,3.491 -2.375,7.055 -8.854,7.055 -4.175,0 -7.236,-1.584 -9.214,-3.816 z"
       id="path21"
       inkscape:connector-curvature="0"
       style="fill:#3cadb2" /><path
       d="m 180.421,26.492 0,-11.807 c 0,-2.196 -0.973,-3.6 -3.203,-3.6 -1.801,0 -3.709,1.296 -4.607,2.664 l 0,12.742 -2.699,0 0,-11.806 c 0,-2.196 -0.938,-3.6 -3.205,-3.6 -1.764,0 -3.635,1.296 -4.57,2.7 l 0,12.707 -2.701,0 0,-17.386 2.701,0 0,2.52 c 0.719,-1.116 3.059,-2.952 5.615,-2.952 2.664,0 4.176,1.44 4.68,3.24 0.971,-1.584 3.311,-3.24 5.83,-3.24 3.168,0 4.859,1.764 4.859,5.255 l 0,12.562 -2.7,0 z"
       id="path23"
       inkscape:connector-curvature="0"
       style="fill:#3cadb2" /><path
       d="m 188.056,4.822 c 0,-1.008 0.828,-1.835 1.799,-1.835 1.008,0 1.836,0.828 1.836,1.835 0,1.007 -0.828,1.8 -1.836,1.8 -0.971,0 -1.799,-0.792 -1.799,-1.8 z m 0.466,21.67 0,-17.386 2.701,0 0,17.386 -2.701,0 z"
       id="path25"
       inkscape:connector-curvature="0"
       style="fill:#3cadb2" /><path
       d="m 196.622,26.492 0,-24.009 2.701,0 0,24.009 -2.701,0 z"
       id="path27"
       inkscape:connector-curvature="0"
       style="fill:#3cadb2" /><path
       d="m 203.716,17.781 c 0,-5.04 3.6,-9.107 8.566,-9.107 5.256,0 8.352,4.104 8.352,9.323 l 0,0.684 -14.074,0 c 0.215,3.275 2.52,6.011 6.264,6.011 1.979,0 3.994,-0.792 5.363,-2.196 l 1.295,1.764 c -1.727,1.728 -4.066,2.664 -6.91,2.664 -5.149,0 -8.856,-3.708 -8.856,-9.143 z m 8.531,-6.875 c -3.707,0 -5.543,3.131 -5.688,5.795 l 11.41,0 c -0.034,-2.592 -1.763,-5.795 -5.722,-5.795 z"
       id="path29"
       inkscape:connector-curvature="0"
       style="fill:#3cadb2" /></g><text
     xml:space="preserve"
     style="font-style:normal;font-weight:normal;font-size:25.77387428px;line-height:125%;font-family:sans-serif;letter-spacing:0px;word-spacing:0px;fill:#000000;fill-opacity:1;stroke:none;stroke-width:1px;stroke-linecap:butt;stroke-linejoin:miter;stroke-opacity:1"
     x="23.021112"
     y="23.531225"
     id="text3382"
     sodipodi:linespacing="125%"
     transform="scale(0.99773086,1.0022743)"><tspan
       sodipodi:role="line"
       id="tspan3384"
       x="23.021112"
       y="23.531225"
       style="fill:#993300;fill-opacity:1">Dynamic Valley</tspan></text>
<path
     style="fill:#993300;fill-opacity:1"
     d="m 10.608428,2.5869612 -9.77289818,10.2935258 1.62850208,-0.01246 0,9.718938 16.9253771,0 0,-9.849618 1.446121,-0.01126 -2.716864,-2.693607 0.03987,0 0,-5.8178522 -1.538794,0 0,4.3321262 -6.011315,-5.95979 z"
     id="rect3348"
     inkscape:connector-curvature="0" /></svg>